<svg xmlns="http://www.w3.org/2000/svg" viewBox="0 0 480 240" role="img" aria-labelledby="title">
  <title id="title">Continuity of care illustration</title>
  <rect width="480" height="240" rx="22" fill="#f3efff"/>
  <circle cx="399" cy="45" r="68" fill="#e5ddff"/><circle cx="72" cy="215" r="72" fill="#e2f1f3"/>
  <rect x="103" y="53" width="184" height="145" rx="17" fill="#fff" stroke="#ddd5f4" stroke-width="3"/>
  <path d="M103 91h184" stroke="#ddd5f4" stroke-width="3"/>
  <path d="M140 46v22m111-22v22" stroke="#a092d8" stroke-width="9" stroke-linecap="round"/>
  <path d="m132 143 22 22 47-51" fill="none" stroke="#2ea798" stroke-width="9" stroke-linecap="round" stroke-linejoin="round"/>
  <path d="M224 125h38m-38 22h26" stroke="#c8bee9" stroke-width="8" stroke-linecap="round"/>
  <circle cx="331" cy="139" r="51" fill="#8e83d2"/>
  <path d="M331 113v29l19 12" fill="none" stroke="#fff" stroke-width="8" stroke-linecap="round" stroke-linejoin="round"/>
  <path d="M304 82a44 44 0 0 1 69 16m5-22-5 22-22-2M359 195a44 44 0 0 1-69-16m-5 22 5-22 22 2" fill="none" stroke="#44b2a1" stroke-width="7" stroke-linecap="round" stroke-linejoin="round"/>
</svg>
